<svg version="1.1" id="Layer_1" xmlns="http://www.w3.org/2000/svg" xmlns:xlink="http://www.w3.org/1999/xlink" x="0px" y="0px"
	 width="100%" viewBox="0 0 500 500" enable-background="new 0 0 500 500" xml:space="preserve" height="50px">
<path fill="#100D28" opacity="1.000000" stroke="none" 
	d="
M328.000000,501.000000 
	C218.666687,501.000000 109.833382,501.000000 1.000058,501.000000 
	C1.000039,334.333405 1.000039,167.666794 1.000019,1.000148 
	C167.666565,1.000099 334.333130,1.000099 500.999756,1.000049 
	C500.999847,167.666519 500.999847,334.333038 500.999939,500.999786 
	C443.500000,501.000000 386.000000,501.000000 328.000000,501.000000 
M158.013519,169.010971 
	C158.013519,169.010971 158.007370,168.976227 157.437408,169.241226 
	C157.236465,169.810394 157.035522,170.379578 156.926453,170.988693 
	C156.926453,170.988693 156.960739,170.894547 156.336029,170.985092 
	C156.092377,171.327774 155.848740,171.670471 155.130112,172.436234 
	C148.229950,181.469070 144.000107,191.620834 142.330536,202.858856 
	C139.640182,220.967590 142.210220,237.975601 153.011292,253.955109 
	C157.664627,258.991547 162.317947,264.028015 167.310226,269.635773 
	C170.083954,271.472992 172.857697,273.310242 176.069748,275.694305 
	C178.384033,276.777466 180.698318,277.860626 183.513855,279.393860 
	C184.582489,279.637878 185.651123,279.881897 187.272964,280.610962 
	C189.183487,281.025391 191.094009,281.439819 193.745270,282.116028 
	C206.802948,284.830994 219.563400,283.935577 232.733810,278.987610 
	C235.816299,277.544617 238.898788,276.101593 242.609695,274.452576 
	C245.403625,272.266785 248.197571,270.080963 251.672256,267.883392 
	C256.760681,260.891418 261.849121,253.899429 267.468140,246.483780 
	C270.384064,240.001740 273.299957,233.519684 276.868195,226.902924 
	C278.548584,223.191284 280.228973,219.479645 282.570587,215.952026 
	C284.100311,216.762589 285.630035,217.573135 287.662842,218.887939 
	C293.730255,221.988388 299.797699,225.088837 306.371948,228.751434 
	C308.141113,229.108719 309.907227,229.482224 311.680023,229.820496 
	C319.537537,231.319931 327.360626,231.942902 335.734955,228.797729 
	C346.459991,224.301178 354.479980,217.455597 356.602478,205.152679 
	C356.602478,205.152679 356.919189,204.984375 357.492310,204.499008 
	C362.520416,188.458069 356.778290,169.105652 343.967682,159.337250 
	C343.679352,159.158340 343.391022,158.979431 342.846191,158.326141 
	C342.399902,158.036682 341.953644,157.747223 341.020355,156.974472 
	C329.530487,149.621872 317.535370,149.145294 304.951752,153.938843 
	C293.297729,158.378296 283.875885,165.661636 275.561432,175.162064 
	C275.360840,175.111816 275.160217,175.061584 274.668396,174.366531 
	C273.455933,173.212173 272.243439,172.057816 271.876984,170.640350 
	C273.025635,170.540222 274.532776,170.875305 275.266266,170.271133 
	C281.132660,165.439270 286.852692,160.429703 292.617554,155.474564 
	C283.683777,158.349930 276.510620,163.490707 270.477997,170.535263 
	C269.323029,169.669525 268.168091,168.803787 266.728790,167.338699 
	C264.164337,165.512222 261.599884,163.685745 258.707581,161.261185 
	C256.214355,160.116058 253.721115,158.970932 251.158020,157.111862 
	C247.412323,155.075653 243.666641,153.039444 239.461685,150.481583 
	C231.965805,148.584320 224.469925,146.687042 216.282684,144.365036 
	C210.489899,144.605957 204.697098,144.846878 198.103439,145.014282 
	C182.584076,147.668991 169.695572,154.921814 159.337234,167.180069 
	C159.183655,167.312256 159.091324,167.478470 158.549255,167.998779 
	C158.359009,168.337677 158.168747,168.676575 158.013519,169.010971 
M328.777893,238.761093 
	C330.199127,238.388824 331.620361,238.016556 333.734741,237.617126 
	C340.112915,235.200729 345.961853,232.112900 349.108002,226.748108 
	C342.661407,229.215912 335.872040,231.814926 328.254761,234.334930 
	C323.574402,234.289719 318.894073,234.244507 313.430450,233.962570 
	C311.805664,233.617767 310.187775,233.235077 308.554169,232.938965 
	C306.969574,232.651764 305.368896,232.453476 303.775269,232.216141 
	C311.218933,237.501862 318.963257,240.927887 328.777893,238.761093 
M119.267426,321.123077 
	C119.618286,320.426758 119.969139,319.730438 120.599876,318.478699 
	C121.875114,323.356628 122.993309,327.633789 124.110451,331.906982 
	C126.584923,331.906982 128.724472,331.906982 130.829071,331.906982 
	C133.581268,323.721680 136.291000,315.662689 139.046661,307.467041 
	C135.155228,307.467041 131.908798,307.467041 127.389847,307.467041 
	C128.732147,309.957336 129.644821,311.650574 130.762238,313.723633 
	C129.979218,316.391663 129.017868,319.667297 128.056519,322.942902 
	C126.422562,319.349792 125.345909,315.895050 124.810829,312.358368 
	C124.113647,307.750153 122.017792,305.917023 117.296021,307.722504 
	C115.991173,312.615936 114.661789,317.601349 113.332397,322.586792 
	C112.641899,322.521362 111.951408,322.455902 111.260910,322.390472 
	C111.260910,317.388672 111.260910,312.386841 111.260910,307.419067 
	C108.087791,307.419067 104.826424,307.419067 101.100288,307.419067 
	C101.296188,308.969299 101.156418,310.351105 101.670219,311.418213 
	C102.785957,313.735626 104.613602,315.757141 105.467072,318.143890 
	C107.067970,322.620880 108.184204,327.271210 109.486176,331.794434 
	C112.122795,331.794434 114.401993,331.794434 116.697960,331.794434 
	C117.529114,328.359314 118.308159,325.139557 119.267426,321.123077 
M189.197830,325.076355 
	C188.416321,327.161438 187.634811,329.246490 186.669830,331.821045 
	C190.540085,331.821045 193.473663,331.821045 196.628265,331.821045 
	C195.882126,327.270782 195.153275,322.825897 194.316727,317.724304 
	C201.035980,322.025391 200.270889,332.538757 209.801636,332.043304 
	C210.401443,323.427277 210.964050,315.345428 211.512207,307.471069 
	C208.642029,307.471069 205.881577,307.471069 203.084106,307.471069 
	C203.886749,312.297394 204.652695,316.902985 205.418625,321.508575 
	C204.972214,321.592316 204.525803,321.676025 204.079376,321.759766 
	C202.042923,318.554962 199.680389,315.506714 198.048859,312.107544 
	C195.780533,307.381714 192.498260,305.984253 187.948242,307.580994 
	C188.370132,313.165436 188.785492,318.663666 189.197830,325.076355 
M293.869385,325.316223 
	C292.846741,327.283173 291.824066,329.250122 290.544495,331.711243 
	C295.042053,331.711243 298.292908,331.711243 302.096924,331.711243 
	C300.968201,328.475006 300.000977,325.701721 298.881470,322.491913 
	C307.282745,321.766998 304.850433,328.297607 306.792694,331.805298 
	C308.982880,331.805298 311.242920,331.805298 314.704071,331.805298 
	C312.687927,327.621368 310.969543,324.055420 309.251190,320.489471 
	C309.644043,320.569885 310.036926,320.650299 310.429779,320.730713 
	C310.979797,317.887695 312.532654,314.732635 311.774628,312.296692 
	C311.123810,310.205353 307.997772,307.893646 305.672455,307.523010 
	C301.022583,306.781891 296.171570,307.303131 292.248657,307.303131 
	C292.825317,313.354584 293.349609,318.856384 293.869385,325.316223 
M382.513092,312.409760 
	C382.326813,318.858856 382.140564,325.307983 381.952240,331.828735 
	C387.374481,331.828735 393.627319,331.828735 400.005676,331.828735 
	C400.005676,328.863220 400.005676,326.097809 400.005676,323.189117 
	C398.327393,323.189117 396.874817,323.189117 395.388641,323.189117 
	C395.004791,324.640869 394.650543,325.980530 394.337616,327.163940 
	C392.368164,327.163940 390.768524,327.163940 389.023895,327.163940 
	C389.023895,325.338654 389.023895,323.766663 389.023895,323.019684 
	C390.924316,321.835480 392.435791,321.168823 393.523499,320.079132 
	C393.952942,319.648895 393.438324,318.276337 393.356689,317.367676 
	C391.649323,317.089233 390.265839,316.863586 388.684448,316.605652 
	C388.855133,314.985840 388.988586,313.719360 389.188751,311.819427 
	C391.291107,312.400574 393.171692,312.637115 394.765869,313.441345 
	C396.336548,314.233734 397.617157,315.601166 399.880127,317.393616 
	C399.880127,312.802551 399.880127,310.067139 399.880127,307.497375 
	C393.290558,307.497375 387.056793,307.497375 380.038635,307.497375 
	C380.709106,309.419220 381.200836,310.828766 382.513092,312.409760 
M351.683868,323.175690 
	C349.351227,325.681854 347.561462,328.327789 349.244781,331.763794 
	C355.360992,331.763794 361.286255,331.763794 367.199951,331.763794 
	C367.199951,328.789368 367.199951,326.099640 367.199951,321.754486 
	C364.392487,323.586548 362.635223,324.733307 360.877930,325.880035 
	C361.083557,326.184174 361.289154,326.488281 361.494751,326.792419 
	C359.785278,326.792419 358.075775,326.792419 356.292450,326.792419 
	C359.146759,319.765869 368.372650,316.517487 367.525024,307.443420 
	C360.910187,307.443420 355.018555,307.443420 349.096863,307.443420 
	C349.096863,310.452057 349.096863,313.168091 349.096863,315.884125 
	C349.490356,316.236298 349.883850,316.588501 350.277374,316.940674 
	C352.038666,315.549622 353.799988,314.158569 356.261505,312.214508 
	C356.465576,312.247528 357.810516,312.465149 359.960968,312.813110 
	C357.020111,316.482056 354.570343,319.538361 351.683868,323.175690 
M259.906250,331.957031 
	C266.168365,331.957031 272.430481,331.957031 278.653564,331.957031 
	C278.653564,328.725708 278.653564,326.114685 278.653564,323.278503 
	C276.855194,323.278503 275.282532,323.278503 273.640930,323.278503 
	C273.333954,324.723175 273.070190,325.964325 272.756470,327.440674 
	C270.777954,327.342255 269.048004,327.256226 267.293884,327.168976 
	C267.293884,325.261993 267.293884,323.820496 267.293884,322.109436 
	C268.876801,321.996246 270.288147,321.895294 271.743500,321.791229 
	C271.743500,320.069458 271.743500,318.670715 271.743500,317.271576 
	C270.069519,317.058807 268.670013,316.880920 267.091034,316.680206 
	C267.193939,315.055817 267.275208,313.773163 267.396454,311.859650 
	C269.499664,312.393860 272.599152,312.489471 272.833954,313.358826 
	C273.935822,317.438354 276.407196,315.507111 278.534119,315.619476 
	C278.534119,312.632050 278.534119,310.065369 278.534119,307.401306 
	C271.921661,307.401306 265.656372,307.401306 259.185974,307.401306 
	C259.185974,308.931549 258.714172,311.065643 259.262024,311.371155 
	C263.006104,313.458923 261.733917,316.923035 261.501587,319.721313 
	C261.173218,323.676483 259.951294,327.557495 259.906250,331.957031 
M226.412918,313.973145 
	C226.039352,319.860687 225.665787,325.748230 225.268814,332.004639 
	C231.869446,331.641266 239.482071,334.055756 244.236771,326.338196 
	C246.907700,322.002869 246.997192,317.426697 244.340317,313.120941 
	C239.681778,305.571259 232.161774,307.229340 223.838348,307.289948 
	C224.875931,309.670135 225.621490,311.380402 226.412918,313.973145 
M150.311890,317.946564 
	C150.257675,327.205261 155.716766,333.200104 163.454193,332.378632 
	C169.598541,331.726288 174.049454,326.603241 174.185410,320.026825 
	C174.321854,313.427032 170.072968,307.887726 164.198380,307.006622 
	C157.600922,306.017090 152.816925,309.563202 150.311890,317.946564 
M329.726868,332.027313 
	C332.026978,332.027313 334.327057,332.027313 338.156860,332.027313 
	C332.196411,323.611115 333.769104,315.485046 337.129669,307.532043 
	C332.889893,307.532043 329.643860,307.532043 325.888885,307.532043 
	C326.280945,309.204926 326.220276,310.673492 326.906464,311.571198 
	C329.690704,315.213776 329.609802,323.707001 326.883728,327.833740 
	C325.657074,329.690643 325.022888,332.096375 329.726868,332.027313 
M301.529022,231.483063 
	C301.529022,231.483063 301.560852,231.519287 301.529022,231.483063 
z"/>
<path fill="#EC01DB" opacity="1.000000" stroke="none" 
	d="
M356.245178,205.178574 
	C354.479980,217.455597 346.459991,224.301178 335.373383,228.427017 
	C333.993988,225.175461 332.893982,222.320328 331.982544,219.406204 
	C331.152100,216.751022 329.852600,215.939087 326.871796,216.497650 
	C320.690979,217.655838 314.456360,217.789627 309.295441,214.015335 
	C310.390198,214.058441 311.082428,214.001328 311.709991,214.176239 
	C325.688354,218.072449 335.924622,207.955917 340.506531,197.754684 
	C342.376617,193.591171 341.211243,189.257462 338.610413,187.674133 
	C339.483185,198.622406 335.814819,205.354553 327.231476,206.499939 
	C322.665833,207.109207 317.833801,205.722183 313.564301,205.165436 
	C315.819244,205.118240 317.635223,205.224869 319.443970,205.151855 
	C330.283356,204.714264 336.249329,196.273010 333.178528,185.766190 
	C332.811829,184.511520 332.441864,183.257797 332.422485,182.053558 
	C343.690063,183.547729 352.058167,188.354599 355.697235,199.440262 
	C355.760925,199.634247 356.273590,199.680847 356.613037,200.180573 
	C356.646851,201.079498 356.644348,201.594070 356.498779,202.383331 
	C356.318878,203.498230 356.282013,204.338394 356.245178,205.178574 
z"/>
<path fill="#4A3CED" opacity="1.000000" stroke="none" 
	d="
M159.060242,167.678711 
	C159.091324,167.478470 159.183655,167.312256 159.862549,167.122681 
	C163.606796,165.383987 166.825745,163.702682 169.983978,162.358856 
	C168.291245,165.145752 166.659225,167.595200 165.013596,170.022308 
	C165.000000,170.000000 165.045731,170.025406 164.695969,169.979614 
	C163.906174,170.638382 163.466141,171.342926 163.014313,172.022903 
	C163.002518,171.998337 163.050568,172.024078 162.705078,172.009186 
	C160.927307,174.383453 159.495010,176.772598 157.910095,179.473572 
	C150.720016,193.222458 147.463821,207.081604 153.063431,222.235321 
	C153.371124,223.057831 153.668411,223.573242 154.003983,224.267258 
	C154.042267,224.445877 154.082565,224.809006 154.062363,225.205917 
	C155.060837,228.708328 156.079514,231.813828 156.822876,235.190674 
	C156.034363,237.366333 155.414810,239.249435 155.030045,241.179337 
	C154.225952,245.212555 153.545746,249.270477 152.814651,253.318253 
	C142.210220,237.975601 139.640182,220.967590 142.330536,202.858856 
	C144.000107,191.620834 148.229950,181.469070 155.660461,172.123932 
	C156.447449,171.505936 156.704086,171.200241 156.960739,170.894547 
	C156.960739,170.894547 156.926453,170.988693 157.160736,170.827301 
	C157.599152,170.102692 157.803268,169.539459 158.007370,168.976227 
	C158.007370,168.976227 158.013519,169.010971 158.275360,168.886749 
	C158.711533,168.401260 158.885880,168.039993 159.060242,167.678711 
z"/>
<path fill="#FA32E6" opacity="1.000000" stroke="none" 
	d="
M313.122009,205.236237 
	C317.833801,205.722183 322.665833,207.109207 327.231476,206.499939 
	C335.814819,205.354553 339.483185,198.622406 338.610413,187.674133 
	C341.211243,189.257462 342.376617,193.591171 340.506531,197.754684 
	C335.924622,207.955917 325.688354,218.072449 311.709991,214.176239 
	C311.082428,214.001328 310.390198,214.058441 308.966461,213.944153 
	C305.759186,212.630692 303.313538,211.380585 300.580383,209.962219 
	C290.879730,201.154510 281.466583,192.515060 272.041534,183.479553 
	C273.006256,180.392776 273.982910,177.702057 274.959595,175.011337 
	C275.160217,175.061584 275.360840,175.111816 275.968262,175.519287 
	C277.874725,177.211639 279.374359,178.546768 281.029358,180.169189 
	C282.657135,181.993652 284.129578,183.530807 285.705994,185.401672 
	C287.536835,187.826645 289.263702,189.917938 291.151123,192.266907 
	C292.132019,193.082733 292.952362,193.640884 293.957275,194.481049 
	C299.480225,200.045227 305.845520,203.466415 313.122009,205.236237 
z"/>
<path fill="#F2F2F3" opacity="1.000000" stroke="none" 
	d="
M119.177315,321.521454 
	C118.308159,325.139557 117.529114,328.359314 116.697960,331.794434 
	C114.401993,331.794434 112.122795,331.794434 109.486176,331.794434 
	C108.184204,327.271210 107.067970,322.620880 105.467072,318.143890 
	C104.613602,315.757141 102.785957,313.735626 101.670219,311.418213 
	C101.156418,310.351105 101.296188,308.969299 101.100288,307.419067 
	C104.826424,307.419067 108.087791,307.419067 111.260910,307.419067 
	C111.260910,312.386841 111.260910,317.388672 111.260910,322.390472 
	C111.951408,322.455902 112.641899,322.521362 113.332397,322.586792 
	C114.661789,317.601349 115.991173,312.615936 117.296021,307.722504 
	C122.017792,305.917023 124.113647,307.750153 124.810829,312.358368 
	C125.345909,315.895050 126.422562,319.349792 128.056519,322.942902 
	C129.017868,319.667297 129.979218,316.391663 130.762238,313.723633 
	C129.644821,311.650574 128.732147,309.957336 127.389847,307.467041 
	C131.908798,307.467041 135.155228,307.467041 139.046661,307.467041 
	C136.291000,315.662689 133.581268,323.721680 130.829071,331.906982 
	C128.724472,331.906982 126.584923,331.906982 124.110451,331.906982 
	C122.993309,327.633789 121.875114,323.356628 120.599876,318.478699 
	C119.969139,319.730438 119.618286,320.426758 119.177315,321.521454 
z"/>
<path fill="#FA32E6" opacity="1.000000" stroke="none" 
	d="
M231.988586,278.967621 
	C219.563400,283.935577 206.802948,284.830994 193.372925,281.557129 
	C193.701874,276.115509 194.403168,271.232758 195.499878,266.470154 
	C198.573029,267.145966 201.250732,267.701660 204.283142,268.476746 
	C210.458878,268.541443 216.279922,268.386719 222.494003,268.223907 
	C225.901871,267.332275 228.916702,266.448730 232.056976,265.939331 
	C232.117813,270.531494 232.053207,274.749573 231.988586,278.967621 
z"/>
<path fill="#8507CD" opacity="1.000000" stroke="none" 
	d="
M272.053467,183.875610 
	C281.466583,192.515060 290.879730,201.154510 300.621948,210.353760 
	C301.696136,214.380096 301.398315,218.236023 305.754425,220.015701 
	C307.427765,220.699371 309.643097,222.632065 309.670441,224.033493 
	C309.696960,225.393494 307.234528,226.802032 305.865112,228.189270 
	C299.797699,225.088837 293.730255,221.988388 287.798706,218.388962 
	C290.223846,213.293243 288.921021,210.104355 284.922638,206.809036 
	C277.033691,200.307236 268.531128,193.893387 269.296906,182.040588 
	C270.401642,182.734665 271.227570,183.305130 272.053467,183.875610 
z"/>
<path fill="#7508B7" opacity="1.000000" stroke="none" 
	d="
M269.018066,181.916977 
	C268.531128,193.893387 277.033691,200.307236 284.922638,206.809036 
	C288.921021,210.104355 290.223846,213.293243 287.547180,218.136841 
	C285.630035,217.573135 284.100311,216.762589 282.094635,215.580811 
	C276.871765,211.434982 272.124817,207.660385 267.178162,203.622269 
	C265.939850,202.286240 264.901276,201.213715 263.898865,199.712372 
	C262.802368,192.321991 263.333801,184.718903 255.919189,180.314819 
	C254.290115,179.347168 253.196198,177.478531 251.890472,175.592773 
	C251.890396,173.164078 251.855682,171.167435 252.155289,169.103912 
	C252.943665,169.015320 253.397736,168.993607 253.908173,169.030518 
	C253.964569,169.089172 254.105499,169.163803 254.175491,169.329041 
	C254.398727,169.695038 254.600571,169.812149 254.925598,169.917862 
	C255.000183,169.990097 255.178436,170.096695 255.305984,170.311707 
	C255.883835,170.740036 256.334137,170.953339 256.926758,171.373352 
	C257.360382,171.735077 257.651642,171.890106 258.137421,172.311661 
	C260.542297,174.403519 262.752716,176.228851 265.122620,178.328125 
	C266.527435,179.707031 267.772766,180.811996 269.018066,181.916977 
z"/>
<path fill="#C435E9" opacity="1.000000" stroke="none" 
	d="
M266.937561,246.907455 
	C261.849121,253.899429 256.760681,260.891418 251.334030,267.436523 
	C250.973557,261.254883 250.951324,255.520065 250.925598,249.505157 
	C250.936310,248.849335 250.950516,248.473587 250.993256,248.054504 
	C251.021805,248.011154 251.092636,247.935303 251.239273,247.831940 
	C251.567734,247.574661 251.735764,247.406921 252.050171,246.854431 
	C252.112473,243.972000 252.014603,241.460495 252.086044,238.655579 
	C257.145416,230.901733 262.035492,223.441330 267.201935,216.289246 
	C267.494202,220.358047 267.587433,224.120163 267.508667,227.878662 
	C267.375671,234.222794 267.133698,240.564651 266.937561,246.907455 
z"/>
<path fill="#F2F2F3" opacity="1.000000" stroke="none" 
	d="
M189.199341,324.619141 
	C188.785492,318.663666 188.370132,313.165436 187.948242,307.580994 
	C192.498260,305.984253 195.780533,307.381714 198.048859,312.107544 
	C199.680389,315.506714 202.042923,318.554962 204.079376,321.759766 
	C204.525803,321.676025 204.972214,321.592316 205.418625,321.508575 
	C204.652695,316.902985 203.886749,312.297394 203.084106,307.471069 
	C205.881577,307.471069 208.642029,307.471069 211.512207,307.471069 
	C210.964050,315.345428 210.401443,323.427277 209.801636,332.043304 
	C200.270889,332.538757 201.035980,322.025391 194.316727,317.724304 
	C195.153275,322.825897 195.882126,327.270782 196.628265,331.821045 
	C193.473663,331.821045 190.540085,331.821045 186.669830,331.821045 
	C187.634811,329.246490 188.416321,327.161438 189.199341,324.619141 
z"/>
<path fill="#F2F2F3" opacity="1.000000" stroke="none" 
	d="
M293.871643,324.837219 
	C293.349609,318.856384 292.825317,313.354584 292.248657,307.303131 
	C296.171570,307.303131 301.022583,306.781891 305.672455,307.523010 
	C307.997772,307.893646 311.123810,310.205353 311.774628,312.296692 
	C312.532654,314.732635 310.979797,317.887695 310.429779,320.730713 
	C310.036926,320.650299 309.644043,320.569885 309.251190,320.489471 
	C310.969543,324.055420 312.687927,327.621368 314.704071,331.805298 
	C311.242920,331.805298 308.982880,331.805298 306.792694,331.805298 
	C304.850433,328.297607 307.282745,321.766998 298.881470,322.491913 
	C300.000977,325.701721 300.968201,328.475006 302.096924,331.711243 
	C298.292908,331.711243 295.042053,331.711243 290.544495,331.711243 
	C291.824066,329.250122 292.846741,327.283173 293.871643,324.837219 
M299.466919,316.869263 
	C301.575897,316.758148 303.699280,316.738922 305.774414,316.412598 
	C306.017090,316.374451 306.352142,313.976288 306.033936,313.804779 
	C304.182098,312.806580 302.147827,312.146912 299.626465,311.157532 
	C299.489471,313.503296 299.414490,314.787048 299.466919,316.869263 
z"/>
<path fill="#BC04D3" opacity="1.000000" stroke="none" 
	d="
M306.118530,228.470352 
	C307.234528,226.802032 309.696960,225.393494 309.670441,224.033493 
	C309.643097,222.632065 307.427765,220.699371 305.754425,220.015701 
	C301.398315,218.236023 301.696136,214.380096 300.909454,210.522003 
	C303.313538,211.380585 305.759186,212.630692 308.533813,213.951996 
	C314.456360,217.789627 320.690979,217.655838 326.871796,216.497650 
	C329.852600,215.939087 331.152100,216.751022 331.982544,219.406204 
	C332.893982,222.320328 333.993988,225.175461 335.019226,228.449799 
	C327.360626,231.942902 319.537537,231.319931 311.680023,229.820496 
	C309.907227,229.482224 308.141113,229.108719 306.118530,228.470352 
z"/>
<path fill="#F2F2F3" opacity="1.000000" stroke="none" 
	d="
M382.102844,312.324036 
	C381.200836,310.828766 380.709106,309.419220 380.038635,307.497375 
	C387.056793,307.497375 393.290558,307.497375 399.880127,307.497375 
	C399.880127,310.067139 399.880127,312.802551 399.880127,317.393616 
	C397.617157,315.601166 396.336548,314.233734 394.765869,313.441345 
	C393.171692,312.637115 391.291107,312.400574 389.188751,311.819427 
	C388.988586,313.719360 388.855133,314.985840 388.684448,316.605652 
	C390.265839,316.863586 391.649323,317.089233 393.356689,317.367676 
	C393.438324,318.276337 393.952942,319.648895 393.523499,320.079132 
	C392.435791,321.168823 390.924316,321.835480 389.023895,323.019684 
	C389.023895,323.766663 389.023895,325.338654 389.023895,327.163940 
	C390.768524,327.163940 392.368164,327.163940 394.337616,327.163940 
	C394.650543,325.980530 395.004791,324.640869 395.388641,323.189117 
	C396.874817,323.189117 398.327393,323.189117 400.005676,323.189117 
	C400.005676,326.097809 400.005676,328.863220 400.005676,331.828735 
	C393.627319,331.828735 387.374481,331.828735 381.952240,331.828735 
	C382.140564,325.307983 382.326813,318.858856 382.102844,312.324036 
z"/>
<path fill="#F2F2F3" opacity="1.000000" stroke="none" 
	d="
M351.902222,322.885193 
	C354.570343,319.538361 357.020111,316.482056 359.960968,312.813110 
	C357.810516,312.465149 356.465576,312.247528 356.261505,312.214508 
	C353.799988,314.158569 352.038666,315.549622 350.277374,316.940674 
	C349.883850,316.588501 349.490356,316.236298 349.096863,315.884125 
	C349.096863,313.168091 349.096863,310.452057 349.096863,307.443420 
	C355.018555,307.443420 360.910187,307.443420 367.525024,307.443420 
	C368.372650,316.517487 359.146759,319.765869 356.292450,326.792419 
	C358.075775,326.792419 359.785278,326.792419 361.494751,326.792419 
	C361.289154,326.488281 361.083557,326.184174 360.877930,325.880035 
	C362.635223,324.733307 364.392487,323.586548 367.199951,321.754486 
	C367.199951,326.099640 367.199951,328.789368 367.199951,331.763794 
	C361.286255,331.763794 355.360992,331.763794 349.244781,331.763794 
	C347.561462,328.327789 349.351227,325.681854 351.902222,322.885193 
z"/>
<path fill="#F2F2F3" opacity="1.000000" stroke="none" 
	d="
M259.508789,331.713623 
	C259.951294,327.557495 261.173218,323.676483 261.501587,319.721313 
	C261.733917,316.923035 263.006104,313.458923 259.262024,311.371155 
	C258.714172,311.065643 259.185974,308.931549 259.185974,307.401306 
	C265.656372,307.401306 271.921661,307.401306 278.534119,307.401306 
	C278.534119,310.065369 278.534119,312.632050 278.534119,315.619476 
	C276.407196,315.507111 273.935822,317.438354 272.833954,313.358826 
	C272.599152,312.489471 269.499664,312.393860 267.396454,311.859650 
	C267.275208,313.773163 267.193939,315.055817 267.091034,316.680206 
	C268.670013,316.880920 270.069519,317.058807 271.743500,317.271576 
	C271.743500,318.670715 271.743500,320.069458 271.743500,321.791229 
	C270.288147,321.895294 268.876801,321.996246 267.293884,322.109436 
	C267.293884,323.820496 267.293884,325.261993 267.293884,327.168976 
	C269.048004,327.256226 270.777954,327.342255 272.756470,327.440674 
	C273.070190,325.964325 273.333954,324.723175 273.640930,323.278503 
	C275.282532,323.278503 276.855194,323.278503 278.653564,323.278503 
	C278.653564,326.114685 278.653564,328.725708 278.653564,331.957031 
	C272.430481,331.957031 266.168365,331.957031 259.508789,331.713623 
z"/>
<path fill="#F2F2F3" opacity="1.000000" stroke="none" 
	d="
M226.389984,313.531921 
	C225.621490,311.380402 224.875931,309.670135 223.838348,307.289948 
	C232.161774,307.229340 239.681778,305.571259 244.340317,313.120941 
	C246.997192,317.426697 246.907700,322.002869 244.236771,326.338196 
	C239.482071,334.055756 231.869446,331.641266 225.268814,332.004639 
	C225.665787,325.748230 226.039352,319.860687 226.389984,313.531921 
M240.106522,321.170197 
	C240.079361,314.165558 238.195801,312.017548 232.173706,312.283417 
	C232.173706,317.198273 232.173706,322.118500 232.173706,327.186279 
	C236.505051,327.811096 238.836349,325.798401 240.106522,321.170197 
z"/>
<path fill="#F2F2F3" opacity="1.000000" stroke="none" 
	d="
M150.403870,317.555084 
	C152.816925,309.563202 157.600922,306.017090 164.198380,307.006622 
	C170.072968,307.887726 174.321854,313.427032 174.185410,320.026825 
	C174.049454,326.603241 169.598541,331.726288 163.454193,332.378632 
	C155.716766,333.200104 150.257675,327.205261 150.403870,317.555084 
M160.189697,312.506439 
	C156.163284,314.683960 155.034760,318.325775 156.491913,322.222778 
	C157.227295,324.189453 159.549728,326.236420 161.569321,326.825806 
	C163.056442,327.259735 166.280334,325.826019 166.845352,324.450317 
	C167.887894,321.911957 168.494904,318.392426 167.482635,316.064850 
	C166.664520,314.183746 163.200058,313.453522 160.189697,312.506439 
z"/>
<path fill="#7C39EC" opacity="1.000000" stroke="none" 
	d="
M152.912964,253.636688 
	C153.545746,249.270477 154.225952,245.212555 155.030045,241.179337 
	C155.414810,239.249435 156.034363,237.366333 157.057190,235.428497 
	C162.069000,241.242905 166.571182,247.090836 170.742035,253.143021 
	C169.264252,258.586334 168.117767,263.825378 166.971283,269.064453 
	C162.317947,264.028015 157.664627,258.991547 152.912964,253.636688 
z"/>
<path fill="#0B0FE8" opacity="1.000000" stroke="none" 
	d="
M280.873993,179.881897 
	C279.374359,178.546768 277.874725,177.211639 276.267853,175.599670 
	C283.875885,165.661636 293.297729,158.378296 304.951752,153.938843 
	C317.535370,149.145294 329.530487,149.621872 341.133789,157.344528 
	C341.247253,157.714584 341.006836,157.989883 340.661774,157.954285 
	C339.205597,157.629364 338.094482,157.340073 336.610260,156.983063 
	C334.526764,156.548126 332.816376,156.180893 330.739380,155.647034 
	C329.051025,155.268921 327.729279,155.057434 326.129517,154.630264 
	C314.828461,152.526810 304.953308,155.215775 296.198212,162.038879 
	C294.889435,163.058884 294.029846,164.655273 292.981567,165.994171 
	C293.000702,166.003326 292.987183,165.963104 292.680481,165.950348 
	C292.235260,166.286560 292.096741,166.635529 291.980347,166.993042 
	C292.002533,167.001602 291.986847,166.956726 291.643250,166.908081 
	C290.848999,167.569824 290.398407,168.280228 289.974365,168.997437 
	C290.000916,169.004257 289.989136,168.950714 289.704956,168.981079 
	C289.263672,169.339310 289.106537,169.667175 288.976837,170.001831 
	C289.004242,170.008606 289.002594,169.952179 288.689453,170.025711 
	C288.093933,170.420395 287.811554,170.741562 287.394714,171.342621 
	C285.131439,174.375626 283.002716,177.128754 280.873993,179.881897 
z"/>
<path fill="#3B0BE5" opacity="1.000000" stroke="none" 
	d="
M356.641876,202.108627 
	C356.644348,201.594070 356.646851,201.079498 356.585114,199.848938 
	C354.682678,194.470169 352.844452,189.807388 351.269073,184.924744 
	C350.318695,181.863327 349.105408,179.021820 347.908966,175.775970 
	C346.585297,170.270905 345.244781,165.170181 343.985199,159.998444 
	C344.066132,159.927414 344.223785,159.780685 344.223785,159.780685 
	C356.778290,169.105652 362.520416,188.458069 357.214050,204.376419 
	C356.837830,203.538757 356.739838,202.823700 356.641876,202.108627 
z"/>
<path fill="#F2F2F3" opacity="1.000000" stroke="none" 
	d="
M329.274658,332.026917 
	C325.022888,332.096375 325.657074,329.690643 326.883728,327.833740 
	C329.609802,323.707001 329.690704,315.213776 326.906464,311.571198 
	C326.220276,310.673492 326.280945,309.204926 325.888885,307.532043 
	C329.643860,307.532043 332.889893,307.532043 337.129669,307.532043 
	C333.769104,315.485046 332.196411,323.611115 338.156860,332.027313 
	C334.327057,332.027313 332.026978,332.027313 329.274658,332.026917 
z"/>
<path fill="#0B0FE8" opacity="1.000000" stroke="none" 
	d="
M170.044678,162.021378 
	C166.825745,163.702682 163.606796,165.383987 159.991486,167.056351 
	C169.695572,154.921814 182.584076,147.668991 198.508514,145.346100 
	C198.893921,146.071182 198.874252,146.464432 198.536209,146.929321 
	C197.176315,147.389069 196.134781,147.777161 195.397797,148.051773 
	C196.288177,149.431183 197.097137,150.684433 197.535767,152.054749 
	C189.427628,154.769730 181.689819,157.367645 173.753433,160.010376 
	C173.281036,160.146729 173.090683,160.326569 172.873596,160.643677 
	C172.763382,160.692627 172.583389,160.853165 172.416412,160.867889 
	C172.249451,160.882599 171.959290,161.050491 171.694962,161.120239 
	C170.968643,161.467117 170.506668,161.744247 170.044678,162.021378 
z"/>
<path fill="#A836E7" opacity="1.000000" stroke="none" 
	d="
M267.202850,246.695618 
	C267.133698,240.564651 267.375671,234.222794 267.508667,227.878662 
	C267.587433,224.120163 267.494202,220.358047 267.270569,215.947052 
	C267.766876,213.836533 268.470856,212.376495 269.473267,211.080444 
	C271.919769,216.508835 274.067810,221.773224 276.215851,227.037628 
	C273.299957,233.519684 270.384064,240.001740 267.202850,246.695618 
z"/>
<path fill="#A836E7" opacity="1.000000" stroke="none" 
	d="
M167.140762,269.350098 
	C168.117767,263.825378 169.264252,258.586334 171.030212,253.310638 
	C174.521866,255.448502 177.394058,257.622986 179.972839,260.071594 
	C179.115448,263.392212 178.701691,266.477264 177.934067,269.471558 
	C177.431625,271.431488 176.416763,273.260071 175.631424,275.147461 
	C172.857697,273.310242 170.083954,271.472992 167.140762,269.350098 
z"/>
<path fill="#A836E7" opacity="1.000000" stroke="none" 
	d="
M253.851791,168.971878 
	C253.397736,168.993607 252.943665,169.015320 251.876221,168.922394 
	C247.371780,166.288834 243.480728,163.769958 239.511749,160.987152 
	C238.925140,160.556656 238.416458,160.390091 237.844177,160.293579 
	C237.780594,160.363647 237.591370,160.365860 237.621979,160.062653 
	C237.674698,159.557449 237.696777,159.355484 237.936569,158.959549 
	C235.430023,157.160873 232.705765,155.556168 229.977448,153.537170 
	C229.945511,151.739517 229.917633,150.356140 230.287399,148.982513 
	C233.763687,149.662582 236.842316,150.332901 239.920959,151.003220 
	C243.666641,153.039444 247.412323,155.075653 250.864029,157.662720 
	C247.966522,160.713287 248.691772,163.055115 250.853195,165.390411 
	C251.909500,166.531677 252.855743,167.774841 253.851791,168.971878 
z"/>
<path fill="#D434E8" opacity="1.000000" stroke="none" 
	d="
M250.929092,249.785263 
	C250.951324,255.520065 250.973557,261.254883 250.993652,267.442444 
	C248.197571,270.080963 245.403625,272.266785 242.296875,274.119446 
	C241.984161,268.811920 241.984283,263.837494 242.140945,258.581482 
	C243.528778,256.530396 244.760086,254.760895 246.316101,252.989090 
	C247.438904,252.316605 248.237000,251.646439 249.018311,250.990204 
	C249.001526,251.004150 248.969101,251.033386 249.183044,250.895813 
	C249.608459,250.495468 249.819916,250.232727 250.017029,249.984207 
	C250.002670,249.998428 249.974380,250.027267 250.213715,249.969330 
	C250.453033,249.911377 250.929092,249.785263 250.929092,249.785263 
z"/>
<path fill="#E634E7" opacity="1.000000" stroke="none" 
	d="
M241.984406,258.863098 
	C241.984283,263.837494 241.984161,268.811920 241.982651,274.222443 
	C238.898788,276.101593 235.816299,277.544617 232.361206,278.977600 
	C232.053207,274.749573 232.117813,270.531494 232.273254,265.716644 
	C235.570877,263.034271 238.777634,260.948669 241.984406,258.863098 
z"/>
<path fill="#450AA4" opacity="1.000000" stroke="none" 
	d="
M276.542023,226.970276 
	C274.067810,221.773224 271.919769,216.508835 269.321655,210.812241 
	C268.242096,209.603912 267.612549,208.827789 266.981079,207.632141 
	C267.112091,206.103668 267.244995,204.994720 267.377899,203.885773 
	C272.124817,207.660385 276.871765,211.434982 281.764038,215.488800 
	C280.228973,219.479645 278.548584,223.191284 276.542023,226.970276 
z"/>
<path fill="#C435E9" opacity="1.000000" stroke="none" 
	d="
M175.850586,275.420898 
	C176.416763,273.260071 177.431625,271.431488 177.934067,269.471558 
	C178.701691,266.477264 179.115448,263.392212 180.290649,260.166565 
	C182.645981,260.972809 184.390076,261.958191 185.833939,263.191223 
	C184.693329,268.607147 183.852966,273.775482 183.012604,278.943817 
	C180.698318,277.860626 178.384033,276.777466 175.850586,275.420898 
z"/>
<path fill="#E634E7" opacity="1.000000" stroke="none" 
	d="
M269.296906,182.040588 
	C267.772766,180.811996 266.527435,179.707031 265.134155,177.910889 
	C265.661835,174.125824 266.337494,171.031952 267.013123,167.938065 
	C268.168091,168.803787 269.323029,169.669525 270.781250,170.727158 
	C271.084473,170.919052 271.030975,170.903458 271.030975,170.903458 
	C272.243439,172.057816 273.455933,173.212173 274.813995,174.688934 
	C273.982910,177.702057 273.006256,180.392776 272.041534,183.479553 
	C271.227570,183.305130 270.401642,182.734665 269.296906,182.040588 
z"/>
<path fill="#D434E8" opacity="1.000000" stroke="none" 
	d="
M183.263229,279.168823 
	C183.852966,273.775482 184.693329,268.607147 186.114883,263.310120 
	C187.451920,263.373749 188.207779,263.566071 189.159607,263.900787 
	C189.653793,264.187317 189.890213,264.400085 190.034195,265.115570 
	C188.908936,270.408417 187.814346,275.267181 186.719757,280.125916 
	C185.651123,279.881897 184.582489,279.637878 183.263229,279.168823 
z"/>
<path fill="#D434E8" opacity="1.000000" stroke="none" 
	d="
M266.870972,167.638382 
	C266.337494,171.031952 265.661835,174.125824 264.974640,177.636963 
	C262.752716,176.228851 260.542297,174.403519 258.152893,171.882935 
	C258.327728,168.078232 258.681580,164.968750 259.035400,161.859253 
	C261.599884,163.685745 264.164337,165.512222 266.870972,167.638382 
z"/>
<path fill="#C435E9" opacity="1.000000" stroke="none" 
	d="
M258.871490,161.560226 
	C258.681580,164.968750 258.327728,168.078232 257.958435,171.616425 
	C257.651642,171.890106 257.360382,171.735077 256.825592,171.128586 
	C256.114197,170.483643 255.646317,170.290161 255.178436,170.096695 
	C255.178436,170.096695 255.000183,169.990097 254.845291,169.763702 
	C254.539337,169.344147 254.344376,169.219635 254.105499,169.163803 
	C254.105499,169.163803 253.964569,169.089172 253.908173,169.030518 
	C252.855743,167.774841 251.909500,166.531677 250.853195,165.390411 
	C248.691772,163.055115 247.966522,160.713287 250.898956,158.019684 
	C253.721115,158.970932 256.214355,160.116058 258.871490,161.560226 
z"/>
<path fill="#450AA4" opacity="1.000000" stroke="none" 
	d="
M271.453979,170.771912 
	C271.030975,170.903458 271.084473,170.919052 271.081146,170.935928 
	C276.510620,163.490707 283.683777,158.349930 292.617554,155.474564 
	C286.852692,160.429703 281.132660,165.439270 275.266266,170.271133 
	C274.532776,170.875305 273.025635,170.540222 271.453979,170.771912 
z"/>
<path fill="#E634E7" opacity="1.000000" stroke="none" 
	d="
M186.996368,280.368439 
	C187.814346,275.267181 188.908936,270.408417 190.367661,265.189331 
	C192.189346,265.335999 193.646896,265.843018 195.104462,266.350037 
	C194.403168,271.232758 193.701874,276.115509 193.002548,281.426270 
	C191.094009,281.439819 189.183487,281.025391 186.996368,280.368439 
z"/>
<path fill="#8507CD" opacity="1.000000" stroke="none" 
	d="
M329.082703,234.413971 
	C335.872040,231.814926 342.661407,229.215912 349.108002,226.748108 
	C345.961853,232.112900 340.112915,235.200729 333.290527,237.333893 
	C331.591797,236.171753 330.337250,235.292862 329.082703,234.413971 
z"/>
<path fill="#450AA4" opacity="1.000000" stroke="none" 
	d="
M328.044891,238.703476 
	C318.963257,240.927887 311.218933,237.501862 303.775269,232.216141 
	C305.368896,232.453476 306.969574,232.651764 308.554169,232.938965 
	C310.187775,233.235077 311.805664,233.617767 313.892273,234.423767 
	C317.245453,235.589203 320.151001,236.240936 323.022827,237.017532 
	C324.724396,237.477676 326.372650,238.134872 328.044891,238.703476 
z"/>
<path fill="#6608E7" opacity="1.000000" stroke="none" 
	d="
M239.691315,150.742401 
	C236.842316,150.332901 233.763687,149.662582 229.907379,148.904800 
	C225.046051,148.118530 220.962372,147.419724 216.894226,146.399185 
	C216.931183,145.648224 216.952621,145.218994 216.974045,144.789764 
	C224.469925,146.687042 231.965805,148.584320 239.691315,150.742401 
z"/>
<path fill="#3B0BE5" opacity="1.000000" stroke="none" 
	d="
M216.628357,144.577393 
	C216.952621,145.218994 216.931183,145.648224 216.464661,146.443100 
	C214.281647,146.754837 212.543716,146.700943 210.503998,146.452515 
	C206.502258,146.523209 202.802322,146.788422 199.038757,147.006744 
	C198.975159,146.959839 198.854568,146.857681 198.854568,146.857681 
	C198.874252,146.464432 198.893921,146.071182 198.908951,145.382858 
	C204.697098,144.846878 210.489899,144.605957 216.628357,144.577393 
z"/>
<path fill="#7508B7" opacity="1.000000" stroke="none" 
	d="
M328.411377,238.732285 
	C326.372650,238.134872 324.724396,237.477676 323.022827,237.017532 
	C320.151001,236.240936 317.245453,235.589203 314.283875,234.542114 
	C318.894073,234.244507 323.574402,234.289719 328.668732,234.374451 
	C330.337250,235.292862 331.591797,236.171753 332.943970,237.347473 
	C331.620361,238.016556 330.199127,238.388824 328.411377,238.732285 
z"/>
<path fill="#890A8C" opacity="1.000000" stroke="none" 
	d="
M356.498779,202.383331 
	C356.739838,202.823700 356.837830,203.538757 356.927490,204.619110 
	C356.919189,204.984375 356.602478,205.152679 356.423828,205.165619 
	C356.282013,204.338394 356.318878,203.498230 356.498779,202.383331 
z"/>
<path fill="#0B0FE8" opacity="1.000000" stroke="none" 
	d="
M341.377319,157.586182 
	C341.953644,157.747223 342.399902,158.036682 342.938904,158.650421 
	C343.031586,158.974716 342.978516,159.155228 342.692749,159.073914 
	C341.940247,158.658371 341.473541,158.324127 341.006836,157.989883 
	C341.006836,157.989883 341.247253,157.714584 341.377319,157.586182 
z"/>
<path fill="#0B0FE8" opacity="1.000000" stroke="none" 
	d="
M157.722382,169.108734 
	C157.803268,169.539459 157.599152,170.102692 157.114807,170.807343 
	C157.035522,170.379578 157.236465,169.810394 157.722382,169.108734 
z"/>
<path fill="#450AA4" opacity="1.000000" stroke="none" 
	d="
M301.544922,231.501175 
	C301.560852,231.519287 301.529022,231.483063 301.544922,231.501175 
z"/>
<path fill="#3B0BE5" opacity="1.000000" stroke="none" 
	d="
M343.067139,158.887619 
	C343.391022,158.979431 343.679352,159.158340 344.095734,159.558960 
	C344.223785,159.780685 344.066132,159.927414 343.803711,159.874542 
	C343.306976,159.638992 343.119385,159.416855 342.978516,159.155228 
	C342.978516,159.155228 343.031586,158.974716 343.067139,158.887619 
z"/>
<path fill="#0B0FE8" opacity="1.000000" stroke="none" 
	d="
M158.804749,167.838745 
	C158.885880,168.039993 158.711533,168.401260 158.257843,168.889008 
	C158.168747,168.676575 158.359009,168.337677 158.804749,167.838745 
z"/>
<path fill="#0B0FE8" opacity="1.000000" stroke="none" 
	d="
M156.648376,170.939819 
	C156.704086,171.200241 156.447449,171.505936 155.897949,171.912399 
	C155.848740,171.670471 156.092377,171.327774 156.648376,170.939819 
z"/>
<path fill="#110D2A" opacity="1.000000" stroke="none" 
	d="
M313.564301,205.165436 
	C305.845520,203.466415 299.480225,200.045227 294.113281,194.154388 
	C296.439392,190.050873 298.794037,186.556030 301.485107,183.018814 
	C303.961639,181.371841 306.101715,179.767227 308.554688,178.093384 
	C309.936981,177.365295 311.006348,176.706421 312.419739,176.032013 
	C313.842804,175.661270 314.921844,175.306061 316.451263,174.983154 
	C319.596832,175.008667 322.292023,175.001877 325.155334,175.282318 
	C327.573456,177.714249 329.823456,179.858948 332.073425,182.003632 
	C332.441864,183.257797 332.811829,184.511520 333.178528,185.766190 
	C336.249329,196.273010 330.283356,204.714264 319.443970,205.151855 
	C317.635223,205.224869 315.819244,205.118240 313.564301,205.165436 
z"/>
<path fill="#890A8C" opacity="1.000000" stroke="none" 
	d="
M332.422485,182.053558 
	C329.823456,179.858948 327.573456,177.714249 325.584900,175.216751 
	C328.892212,175.195679 331.938049,175.527420 335.328918,175.989166 
	C337.087250,176.527069 338.500580,176.934967 340.137634,177.552460 
	C341.493958,178.249252 342.626587,178.736465 343.968292,179.483734 
	C346.453644,181.544052 348.729919,183.344330 351.006195,185.144623 
	C352.844452,189.807388 354.682678,194.470169 356.548828,199.464584 
	C356.273590,199.680847 355.760925,199.634247 355.697235,199.440262 
	C352.058167,188.354599 343.690063,183.547729 332.422485,182.053558 
z"/>
<path fill="#0A0EAB" opacity="1.000000" stroke="none" 
	d="
M153.053024,221.928192 
	C147.463821,207.081604 150.720016,193.222458 158.208099,179.308136 
	C160.122665,176.561935 161.586624,174.292999 163.050568,172.024078 
	C163.050568,172.024078 163.002518,171.998337 163.298218,171.929291 
	C164.077850,171.248627 164.561798,170.637009 165.045731,170.025406 
	C165.045731,170.025406 165.000000,170.000000 165.328293,169.900131 
	C167.304337,168.415009 168.892578,166.950775 170.609299,165.657013 
	C184.462402,155.216751 200.014175,152.113129 216.947144,155.458038 
	C216.966507,157.642639 216.977798,159.390945 217.009369,161.513550 
	C217.265106,163.321915 217.500580,164.755981 218.033295,168.000290 
	C213.076080,166.323929 209.070511,165.053528 205.132370,163.600372 
	C203.300613,162.924469 201.551559,161.059952 199.847366,161.158493 
	C188.352554,161.823227 178.710449,166.416748 171.588074,175.702347 
	C165.775558,183.280197 162.439224,191.975952 161.257202,201.328888 
	C160.361221,208.418472 160.509506,215.617249 164.318665,223.355789 
	C164.318665,219.900986 164.318665,217.607971 164.318665,215.314957 
	C165.578400,217.438858 166.034058,219.779846 167.138428,221.758850 
	C170.326279,227.471420 172.657394,234.065216 180.367645,236.115173 
	C187.096664,242.350372 194.756577,246.223145 202.748962,248.880783 
	C201.256241,249.085739 200.162781,249.187958 198.646698,249.202362 
	C193.834366,248.343109 189.444656,247.571640 184.782745,246.575821 
	C171.957260,242.575577 161.355637,236.043030 154.082565,224.809006 
	C154.082565,224.809006 154.042267,224.445877 153.990952,223.959885 
	C153.644104,222.958664 153.348557,222.443420 153.053024,221.928192 
z"/>
<path fill="#3B0BE5" opacity="1.000000" stroke="none" 
	d="
M154.062363,225.205917 
	C161.355637,236.043030 171.957260,242.575577 184.764496,247.010864 
	C186.333496,253.032974 187.648560,258.395691 188.963623,263.758392 
	C188.207779,263.566071 187.451920,263.373749 186.415131,263.062500 
	C184.390076,261.958191 182.645981,260.972809 180.584061,259.892426 
	C177.394058,257.622986 174.521866,255.448502 171.361511,253.106400 
	C166.571182,247.090836 162.069000,241.242905 157.332520,235.157135 
	C156.079514,231.813828 155.060837,228.708328 154.062363,225.205917 
z"/>
<path fill="#8579E4" opacity="1.000000" stroke="none" 
	d="
M216.939072,155.021744 
	C200.014175,152.113129 184.462402,155.216751 170.609299,165.657013 
	C168.892578,166.950775 167.304337,168.415009 165.341888,169.922455 
	C166.659225,167.595200 168.291245,165.145752 169.983978,162.358856 
	C170.506668,161.744247 170.968643,161.467117 171.784760,161.246002 
	C172.138901,161.302002 172.532578,161.268127 172.532578,161.268127 
	C172.532578,161.268127 172.583389,160.853165 172.583389,160.853165 
	C172.583389,160.853165 172.763382,160.692627 173.080551,160.629150 
	C173.674377,160.450668 173.859146,160.250626 173.952011,159.965561 
	C181.689819,157.367645 189.427628,154.769730 198.012680,152.101532 
	C205.234589,152.209641 211.609268,152.388000 218.293396,152.701996 
	C224.974869,154.942932 231.346848,157.048218 237.718842,159.153519 
	C237.696777,159.355484 237.674698,159.557449 237.268692,159.986618 
	C230.236206,158.483124 223.587646,156.752441 216.939072,155.021744 
z"/>
<path fill="#8579E4" opacity="1.000000" stroke="none" 
	d="
M162.705078,172.009186 
	C161.586624,174.292999 160.122665,176.561935 158.360718,178.996307 
	C159.495010,176.772598 160.927307,174.383453 162.705078,172.009186 
z"/>
<path fill="#8579E4" opacity="1.000000" stroke="none" 
	d="
M164.695969,169.979614 
	C164.561798,170.637009 164.077850,171.248627 163.310028,171.953857 
	C163.466141,171.342926 163.906174,170.638382 164.695969,169.979614 
z"/>
<path fill="#3B0BE5" opacity="1.000000" stroke="none" 
	d="
M153.063431,222.235321 
	C153.348557,222.443420 153.644104,222.958664 153.952667,223.781265 
	C153.668411,223.573242 153.371124,223.057831 153.063431,222.235321 
z"/>
<path fill="#EC01DB" opacity="1.000000" stroke="none" 
	d="
M281.029358,180.169189 
	C283.002716,177.128754 285.131439,174.375626 287.720306,171.277649 
	C288.454498,170.605927 288.728546,170.279053 289.002594,169.952179 
	C289.002594,169.952179 289.004242,170.008606 289.236664,169.930359 
	C289.642426,169.551651 289.815765,169.251175 289.989136,168.950714 
	C289.989136,168.950714 290.000916,169.004257 290.269226,168.914062 
	C291.020630,168.201492 291.503754,167.579117 291.986847,166.956726 
	C291.986847,166.956726 292.002533,167.001602 292.255737,166.950317 
	C292.668396,166.587051 292.827789,166.275085 292.987183,165.963104 
	C292.987183,165.963104 293.000702,166.003326 293.331116,165.979477 
	C298.105347,163.388748 302.549194,160.821869 306.996582,158.622009 
	C307.632843,161.620422 308.265564,164.251816 308.682190,166.905914 
	C308.466095,166.928604 308.038727,167.007462 307.713837,167.122864 
	C304.890533,168.753189 302.392120,170.268112 299.597534,171.934723 
	C297.186859,173.874496 295.072357,175.662567 292.665833,177.661270 
	C290.116577,180.270584 287.859283,182.669266 285.602020,185.067963 
	C284.129578,183.530807 282.657135,181.993652 281.029358,180.169189 
z"/>
<path fill="#7C39EC" opacity="1.000000" stroke="none" 
	d="
M292.957825,177.450623 
	C295.072357,175.662567 297.186859,173.874496 299.870087,172.251450 
	C300.675446,175.964691 300.912048,179.512939 301.148682,183.061188 
	C298.794037,186.556030 296.439392,190.050873 293.928711,193.872391 
	C292.952362,193.640884 292.132019,193.082733 291.416626,191.988831 
	C292.000366,186.785583 292.479095,182.118103 292.957825,177.450623 
z"/>
<path fill="#4A3CED" opacity="1.000000" stroke="none" 
	d="
M292.665833,177.661255 
	C292.479095,182.118103 292.000366,186.785583 291.256073,191.731140 
	C289.263702,189.917938 287.536835,187.826645 285.705994,185.401672 
	C287.859283,182.669266 290.116577,180.270584 292.665833,177.661255 
z"/>
<path fill="#6608E7" opacity="1.000000" stroke="none" 
	d="
M199.069321,249.290192 
	C200.162781,249.187958 201.256241,249.085739 202.761749,248.966003 
	C203.173782,248.948517 203.028976,249.038391 203.260864,249.285736 
	C204.980240,249.417358 206.467712,249.301636 208.374573,249.114319 
	C210.209305,249.082733 211.624695,249.122757 213.284271,249.353485 
	C214.344849,249.685547 215.161240,249.826904 215.988922,250.369797 
	C216.684738,253.555939 217.369263,256.340515 217.770599,259.343445 
	C215.058289,260.388611 212.629150,261.215454 210.200012,262.042297 
	C210.255783,262.242920 210.311554,262.443573 210.367310,262.644196 
	C213.907196,262.644196 217.447083,262.644196 221.030548,263.045776 
	C221.416412,265.042206 221.758698,266.637115 222.100983,268.231995 
	C216.279922,268.386719 210.458878,268.541443 204.301331,268.053528 
	C202.332993,261.370667 200.701157,255.330429 199.069321,249.290192 
z"/>
<path fill="#5209E7" opacity="1.000000" stroke="none" 
	d="
M198.646698,249.202377 
	C200.701157,255.330429 202.332993,261.370667 203.946655,267.834106 
	C201.250732,267.701660 198.573029,267.145966 195.499878,266.470154 
	C193.646896,265.843018 192.189346,265.335999 190.398315,264.755188 
	C189.890213,264.400085 189.653793,264.187317 189.159607,263.900787 
	C187.648560,258.395691 186.333496,253.032974 185.036682,247.235229 
	C189.444656,247.571640 193.834366,248.343109 198.646698,249.202377 
z"/>
<path fill="#8508E6" opacity="1.000000" stroke="none" 
	d="
M222.494003,268.223938 
	C221.758698,266.637115 221.416412,265.042206 221.342743,262.858154 
	C226.403854,260.827606 231.196350,259.386169 236.331696,257.868958 
	C239.780273,256.192871 242.885986,254.592529 245.995514,252.995789 
	C245.999313,252.999374 245.991364,252.991379 245.991364,252.991394 
	C244.760086,254.760895 243.528778,256.530396 242.140945,258.581482 
	C238.777634,260.948669 235.570877,263.034271 232.147827,265.342529 
	C228.916702,266.448730 225.901871,267.332275 222.494003,268.223938 
z"/>
<path fill="#450AA4" opacity="1.000000" stroke="none" 
	d="
M251.855835,176.024811 
	C253.196198,177.478531 254.290115,179.347168 255.919189,180.314819 
	C263.333801,184.718903 262.802368,192.321991 263.587738,199.684692 
	C262.822815,200.059372 262.405151,200.032898 261.869812,199.690796 
	C252.097046,192.312317 242.442017,185.249481 232.840897,177.787201 
	C232.380463,175.925064 232.256439,173.579361 231.285294,173.150101 
	C226.692856,171.120102 226.590210,167.010742 226.259460,163.116608 
	C235.039093,167.436661 243.447464,171.730728 251.855835,176.024811 
z"/>
<path fill="#370DC0" opacity="1.000000" stroke="none" 
	d="
M251.890472,175.592773 
	C243.447464,171.730728 235.039093,167.436661 225.890839,163.057159 
	C222.430359,162.360901 219.709717,161.750076 216.989090,161.139252 
	C216.977798,159.390945 216.966507,157.642639 216.947144,155.458038 
	C223.587646,156.752441 230.236206,158.483124 237.238068,160.289825 
	C237.591370,160.365860 237.780594,160.363647 237.962799,160.528534 
	C238.626572,160.879303 239.108139,161.065186 239.589691,161.251083 
	C243.480728,163.769958 247.371780,166.288834 251.541901,168.989258 
	C251.855682,171.167435 251.890396,173.164078 251.890472,175.592773 
z"/>
<path fill="#0B0D82" opacity="1.000000" stroke="none" 
	d="
M261.987518,200.006439 
	C262.405151,200.032898 262.822815,200.059372 263.551575,200.113525 
	C264.901276,201.213715 265.939850,202.286240 267.178162,203.622269 
	C267.244995,204.994720 267.112091,206.103668 266.764465,207.624908 
	C266.549774,208.037186 266.118195,208.078934 265.805054,207.863724 
	C263.288574,207.026840 261.085236,206.405151 258.933441,205.449677 
	C259.985840,203.412735 260.986694,201.709579 261.987518,200.006439 
z"/>
<path fill="#A836E7" opacity="1.000000" stroke="none" 
	d="
M255.305984,170.311707 
	C255.646317,170.290161 256.114197,170.483643 256.683258,170.921890 
	C256.334137,170.953339 255.883835,170.740036 255.305984,170.311707 
z"/>
<path fill="#A836E7" opacity="1.000000" stroke="none" 
	d="
M254.175491,169.329041 
	C254.344376,169.219635 254.539337,169.344147 254.770691,169.691467 
	C254.600571,169.812149 254.398727,169.695038 254.175491,169.329041 
z"/>
<path fill="#BC04D3" opacity="1.000000" stroke="none" 
	d="
M266.118195,208.078934 
	C266.118195,208.078934 266.549774,208.037186 266.766388,208.044434 
	C267.612549,208.827789 268.242096,209.603912 269.023224,210.648254 
	C268.470856,212.376495 267.766876,213.836533 266.994202,215.638733 
	C262.035492,223.441330 257.145416,230.901733 251.821533,238.810699 
	C250.338104,239.862244 249.288483,240.465256 247.945831,240.862396 
	C247.330551,240.036621 247.008316,239.416702 246.900177,238.530457 
	C248.727722,236.158813 250.341171,234.053528 251.978851,231.969559 
	C252.003098,231.990875 251.951019,231.957916 252.216949,231.912399 
	C252.641052,231.560257 252.799240,231.253616 252.977020,230.973724 
	C252.996628,231.000473 252.940765,230.964523 253.260345,230.868134 
	C254.372574,229.498672 255.165237,228.225616 255.979797,226.973404 
	C256.001709,226.994247 255.944504,226.975067 256.239380,226.853317 
	C256.697449,226.148071 256.860657,225.564575 257.024475,225.000259 
	C257.025024,225.019455 256.987793,225.028885 257.306641,224.906006 
	C257.744781,224.351578 257.864044,223.920013 258.215454,223.263428 
	C261.004486,218.051926 263.561340,213.065430 266.118195,208.078934 
z"/>
<path fill="#D434E8" opacity="1.000000" stroke="none" 
	d="
M248.238861,241.068268 
	C249.288483,240.465256 250.338104,239.862244 251.652222,239.104126 
	C252.014603,241.460495 252.112473,243.972000 251.890137,246.935623 
	C251.376633,247.540421 251.217529,247.722946 251.092636,247.935303 
	C251.092636,247.935303 251.021805,248.011154 250.787811,248.240555 
	C250.360657,248.989059 250.167526,249.508163 249.974380,250.027267 
	C249.974380,250.027267 250.002670,249.998428 249.790497,250.108063 
	C249.375244,250.489594 249.172180,250.761490 248.969101,251.033386 
	C248.969101,251.033386 249.001526,251.004150 248.698730,251.022766 
	C247.614120,251.380783 246.832291,251.720215 245.894806,251.729523 
	C244.797668,249.915970 243.856155,248.432510 243.088791,246.661972 
	C244.921570,244.606003 246.580231,242.837143 248.238861,241.068268 
z"/>
<path fill="#8508E6" opacity="1.000000" stroke="none" 
	d="
M250.213715,249.969330 
	C250.167526,249.508163 250.360657,248.989059 250.759262,248.283905 
	C250.950516,248.473587 250.936310,248.849335 250.925598,249.505157 
	C250.929092,249.785263 250.453033,249.911377 250.213715,249.969330 
z"/>
<path fill="#8508E6" opacity="1.000000" stroke="none" 
	d="
M251.239273,247.831940 
	C251.217529,247.722946 251.376633,247.540421 251.729980,247.306549 
	C251.735764,247.406921 251.567734,247.574661 251.239273,247.831940 
z"/>
<path fill="#110D2A" opacity="1.000000" stroke="none" 
	d="
M299.403198,316.470032 
	C299.414490,314.787048 299.489471,313.503296 299.626465,311.157532 
	C302.147827,312.146912 304.182098,312.806580 306.033936,313.804779 
	C306.352142,313.976288 306.017090,316.374451 305.774414,316.412598 
	C303.699280,316.738922 301.575897,316.758148 299.403198,316.470032 
z"/>
<path fill="#110D2A" opacity="1.000000" stroke="none" 
	d="
M240.048523,321.584381 
	C238.836349,325.798401 236.505051,327.811096 232.173706,327.186279 
	C232.173706,322.118500 232.173706,317.198273 232.173706,312.283417 
	C238.195801,312.017548 240.079361,314.165558 240.048523,321.584381 
z"/>
<path fill="#110D2A" opacity="1.000000" stroke="none" 
	d="
M160.549591,312.359619 
	C163.200058,313.453522 166.664520,314.183746 167.482635,316.064850 
	C168.494904,318.392426 167.887894,321.911957 166.845352,324.450317 
	C166.280334,325.826019 163.056442,327.259735 161.569321,326.825806 
	C159.549728,326.236420 157.227295,324.189453 156.491913,322.222778 
	C155.034760,318.325775 156.163284,314.683960 160.549591,312.359619 
z"/>
<path fill="#8508E6" opacity="1.000000" stroke="none" 
	d="
M326.407501,154.845947 
	C327.729279,155.057434 329.051025,155.268921 330.719940,156.059509 
	C331.683167,159.821869 332.299255,163.005096 332.497284,166.159531 
	C327.776276,165.634140 323.473328,165.137558 319.126556,164.278229 
	C318.329315,161.156555 317.575928,158.397614 317.189880,155.463165 
	C320.507294,155.140411 323.457397,154.993179 326.407501,154.845947 
z"/>
<path fill="#5209E7" opacity="1.000000" stroke="none" 
	d="
M342.692749,159.073914 
	C343.119385,159.416855 343.306976,159.638992 343.722778,159.945557 
	C345.244781,165.170181 346.585297,170.270905 347.666260,175.638702 
	C346.912048,175.673782 346.417419,175.441757 345.647919,175.027832 
	C343.918121,173.559677 342.463196,172.273438 340.877197,170.765717 
	C340.509216,170.295395 340.272308,170.046539 340.028625,169.408127 
	C339.009003,165.029312 337.996185,161.040039 336.983368,157.050781 
	C338.094482,157.340073 339.205597,157.629364 340.661774,157.954285 
	C341.473541,158.324127 341.940247,158.658371 342.692749,159.073914 
z"/>
<path fill="#6608E7" opacity="1.000000" stroke="none" 
	d="
M336.610260,156.983063 
	C337.996185,161.040039 339.009003,165.029312 339.721130,169.337677 
	C338.273010,169.149139 337.125610,168.641479 335.672241,168.060852 
	C334.549347,167.388031 333.732330,166.788193 332.915344,166.188339 
	C332.299255,163.005096 331.683167,159.821869 331.086548,156.226151 
	C332.816376,156.180893 334.526764,156.548126 336.610260,156.983063 
z"/>
<path fill="#8579E4" opacity="1.000000" stroke="none" 
	d="
M326.129517,154.630264 
	C323.457397,154.993179 320.507294,155.140411 316.800659,155.530182 
	C313.027069,156.600128 310.010071,157.427551 306.993042,158.254974 
	C302.549194,160.821869 298.105347,163.388748 293.311951,165.970322 
	C294.029846,164.655273 294.889435,163.058884 296.198212,162.038879 
	C304.953308,155.215775 314.828461,152.526810 326.129517,154.630264 
z"/>
<path fill="#8579E4" opacity="1.000000" stroke="none" 
	d="
M291.643250,166.908081 
	C291.503754,167.579117 291.020630,168.201492 290.242676,168.907257 
	C290.398407,168.280228 290.848999,167.569824 291.643250,166.908081 
z"/>
<path fill="#8579E4" opacity="1.000000" stroke="none" 
	d="
M292.680481,165.950348 
	C292.827789,166.275085 292.668396,166.587051 292.233582,166.941757 
	C292.096741,166.635529 292.235260,166.286560 292.680481,165.950348 
z"/>
<path fill="#8579E4" opacity="1.000000" stroke="none" 
	d="
M289.704956,168.981079 
	C289.815765,169.251175 289.642426,169.551651 289.209259,169.923584 
	C289.106537,169.667175 289.263672,169.339310 289.704956,168.981079 
z"/>
<path fill="#8579E4" opacity="1.000000" stroke="none" 
	d="
M288.689453,170.025711 
	C288.728546,170.279053 288.454498,170.605927 287.854797,170.997757 
	C287.811554,170.741562 288.093933,170.420395 288.689453,170.025711 
z"/>
<path fill="#A836E7" opacity="1.000000" stroke="none" 
	d="
M345.922791,175.209747 
	C346.417419,175.441757 346.912048,175.673782 347.649414,176.043060 
	C349.105408,179.021820 350.318695,181.863327 351.269073,184.924744 
	C348.729919,183.344330 346.453644,181.544052 344.243103,179.272980 
	C344.846832,177.604721 345.384827,176.407242 345.922791,175.209747 
z"/>
<path fill="#3B0BE5" opacity="1.000000" stroke="none" 
	d="
M217.983932,152.566376 
	C211.609268,152.388000 205.234589,152.209641 198.383026,151.984467 
	C197.097137,150.684433 196.288177,149.431183 195.397797,148.051773 
	C196.134781,147.777161 197.176315,147.389069 198.536209,146.929321 
	C198.854568,146.857681 198.975159,146.959839 199.326248,147.263687 
	C203.759338,148.061478 207.841324,148.555420 212.252075,149.181152 
	C214.349533,149.899719 216.118240,150.486511 217.911377,151.446533 
	C217.951828,152.068649 217.967880,152.317520 217.983932,152.566376 
z"/>
<path fill="#4A3CED" opacity="1.000000" stroke="none" 
	d="
M173.753433,160.010376 
	C173.859146,160.250626 173.674377,160.450668 173.190765,160.580200 
	C173.090683,160.326569 173.281036,160.146729 173.753433,160.010376 
z"/>
<path fill="#4A3CED" opacity="1.000000" stroke="none" 
	d="
M172.416412,160.867889 
	C172.583389,160.853165 172.532578,161.268127 172.532578,161.268127 
	C172.532578,161.268127 172.138901,161.302002 172.049103,161.176239 
	C171.959290,161.050491 172.249451,160.882599 172.416412,160.867889 
z"/>
<path fill="#7C39EC" opacity="1.000000" stroke="none" 
	d="
M217.886948,151.073303 
	C216.118240,150.486511 214.349533,149.899719 212.114502,148.884155 
	C211.367386,147.852600 211.086594,147.249817 210.805801,146.647034 
	C212.543716,146.700943 214.281647,146.754837 216.449127,146.764832 
	C220.962372,147.419724 225.046051,148.118530 229.509735,148.895050 
	C229.917633,150.356140 229.945511,151.739517 229.640656,153.403320 
	C225.500916,152.813599 221.693939,151.943451 217.886948,151.073303 
z"/>
<path fill="#8508E6" opacity="1.000000" stroke="none" 
	d="
M217.911377,151.446548 
	C221.693939,151.943451 225.500916,152.813599 229.644714,153.817612 
	C232.705765,155.556168 235.430023,157.160873 237.936569,158.959549 
	C231.346848,157.048218 224.974869,154.942932 218.293396,152.701996 
	C217.967880,152.317520 217.951828,152.068649 217.911377,151.446548 
z"/>
<path fill="#8579E4" opacity="1.000000" stroke="none" 
	d="
M239.511749,160.987152 
	C239.108139,161.065186 238.626572,160.879303 238.026398,160.458466 
	C238.416458,160.390091 238.925140,160.556656 239.511749,160.987152 
z"/>
<path fill="#8508E6" opacity="1.000000" stroke="none" 
	d="
M246.050461,252.059631 
	C246.832291,251.720215 247.614120,251.380783 248.715515,251.008820 
	C248.237000,251.646439 247.438904,252.316605 246.316086,252.989075 
	C245.991364,252.991379 245.999313,252.999374 246.002075,252.762161 
	C246.004837,252.524948 246.050461,252.059631 246.050461,252.059631 
z"/>
<path fill="#8508E6" opacity="1.000000" stroke="none" 
	d="
M249.183044,250.895813 
	C249.172180,250.761490 249.375244,250.489594 249.804840,250.093842 
	C249.819916,250.232727 249.608459,250.495468 249.183044,250.895813 
z"/>
<path fill="#6608E7" opacity="1.000000" stroke="none" 
	d="
M210.503998,146.452515 
	C211.086594,147.249817 211.367386,147.852600 211.785751,148.752380 
	C207.841324,148.555420 203.759338,148.061478 199.389862,147.310577 
	C202.802322,146.788422 206.502258,146.523209 210.503998,146.452515 
z"/>
<path fill="#FA32E6" opacity="1.000000" stroke="none" 
	d="
M332.497284,166.159531 
	C333.732330,166.788193 334.549347,167.388031 335.663269,168.447693 
	C335.634796,171.224747 335.309326,173.541946 334.983887,175.859161 
	C331.938049,175.527420 328.892212,175.195679 325.416809,174.929520 
	C322.292023,175.001877 319.596832,175.008667 316.450684,174.535873 
	C316.015137,171.079498 316.030548,168.102722 316.437469,165.080017 
	C317.609467,164.903061 318.389923,164.772018 319.170380,164.640976 
	C323.473328,165.137558 327.776276,165.634140 332.497284,166.159531 
z"/>
<path fill="#A836E7" opacity="1.000000" stroke="none" 
	d="
M301.485107,183.018799 
	C300.912048,179.512939 300.675446,175.964691 300.166260,172.099731 
	C302.392120,170.268112 304.890533,168.753189 307.700806,167.561691 
	C308.089020,171.310944 308.165405,174.736771 308.241791,178.162613 
	C306.101715,179.767227 303.961639,181.371841 301.485107,183.018799 
z"/>
<path fill="#E634E7" opacity="1.000000" stroke="none" 
	d="
M316.045929,165.125946 
	C316.030548,168.102722 316.015137,171.079498 316.000305,174.503571 
	C314.921844,175.306061 313.842804,175.661270 312.156891,175.746460 
	C311.708405,172.331894 311.866760,169.187378 312.365051,165.980408 
	C313.818604,165.653961 314.932281,165.389954 316.045929,165.125946 
z"/>
<path fill="#C435E9" opacity="1.000000" stroke="none" 
	d="
M312.025146,166.042847 
	C311.866760,169.187378 311.708405,172.331894 311.812866,175.761993 
	C311.006348,176.706421 309.936981,177.365295 308.554688,178.093384 
	C308.165405,174.736771 308.089020,171.310944 308.025696,167.446289 
	C308.038727,167.007462 308.466095,166.928604 309.011780,166.903442 
	C310.380035,166.599792 311.202606,166.321320 312.025146,166.042847 
z"/>
<path fill="#E634E7" opacity="1.000000" stroke="none" 
	d="
M335.328918,175.989166 
	C335.309326,173.541946 335.634796,171.224747 335.969208,168.520676 
	C337.125610,168.641479 338.273010,169.149139 339.727905,169.727234 
	C340.272308,170.046539 340.509216,170.295395 340.870850,171.167175 
	C340.635010,173.641037 340.274445,175.491943 339.913879,177.342865 
	C338.500580,176.934967 337.087250,176.527069 335.328918,175.989166 
z"/>
<path fill="#D434E8" opacity="1.000000" stroke="none" 
	d="
M340.137634,177.552460 
	C340.274445,175.491943 340.635010,173.641037 341.001923,171.388657 
	C342.463196,172.273438 343.918121,173.559677 345.647949,175.027832 
	C345.384827,176.407242 344.846832,177.604721 344.034027,179.012939 
	C342.626587,178.736465 341.493958,178.249252 340.137634,177.552460 
z"/>
<path fill="#110D2A" opacity="1.000000" stroke="none" 
	d="
M261.869812,199.690796 
	C260.986694,201.709579 259.985840,203.412735 258.713165,205.722992 
	C257.600311,207.943222 256.816681,209.589432 255.909454,211.164429 
	C245.860291,228.610306 235.428070,245.634460 213.040070,249.162781 
	C211.624695,249.122757 210.209305,249.082733 207.965881,249.062225 
	C205.768219,249.067276 204.398590,249.052826 203.028976,249.038391 
	C203.028976,249.038391 203.173782,248.948517 203.160995,248.863281 
	C194.756577,246.223145 187.096664,242.350372 180.299103,235.775116 
	C177.563202,230.860077 175.180908,226.457565 172.801880,221.651337 
	C172.283127,217.156189 171.192108,213.042557 171.350510,208.977600 
	C171.754532,198.609131 176.336670,189.846359 183.340256,181.999359 
	C191.916122,174.822601 201.658508,171.854858 212.234192,173.124313 
	C219.187485,173.958939 225.942947,176.441833 232.786987,178.186630 
	C242.442017,185.249481 252.097046,192.312317 261.869812,199.690796 
M182.482101,190.175827 
	C182.476868,190.605820 182.471634,191.035797 182.466431,191.465805 
	C182.748489,191.095291 183.030548,190.724777 183.761917,190.143127 
	C184.044998,189.950333 184.251373,189.695435 185.060013,189.196198 
	C191.051071,186.463684 197.042130,183.731171 203.862946,180.971649 
	C206.588165,181.175583 209.313370,181.379517 212.793060,181.746048 
	C213.559875,181.718109 214.326691,181.690170 215.910828,181.824448 
	C220.770279,182.774704 225.629730,183.724945 230.489197,184.675201 
	C230.668671,184.175766 230.848145,183.676315 231.027618,183.176865 
	C225.713501,181.259644 220.399399,179.342422 214.208466,177.098450 
	C210.372604,177.280685 206.536743,177.462921 201.944672,177.650909 
	C199.947235,178.394440 197.949799,179.137970 195.324402,180.236771 
	C191.470779,183.081329 187.617142,185.925873 183.344528,189.026291 
	C183.086258,189.251907 182.931564,189.534286 182.482101,190.175827 
M248.532974,216.633514 
	C249.993088,214.068787 251.453201,211.504059 253.468018,208.548965 
	C254.630203,206.567200 256.090668,204.690735 256.841583,202.563766 
	C257.284943,201.307861 256.604889,199.655380 256.430054,198.181229 
	C255.873611,198.215851 255.317184,198.250458 254.760757,198.285080 
	C253.465912,201.108841 252.171066,203.932602 250.274887,207.114075 
	C248.570847,210.392624 246.866821,213.671188 245.014999,217.643860 
	C242.810364,221.466248 238.208603,223.958450 237.970581,228.872131 
	C238.425461,229.167526 238.880341,229.462906 239.335205,229.758286 
	C242.211563,225.513931 245.087906,221.269577 248.532974,216.633514 
z"/>
<path fill="#0B0D82" opacity="1.000000" stroke="none" 
	d="
M172.798630,222.055038 
	C175.180908,226.457565 177.563202,230.860077 180.014008,235.602661 
	C172.657394,234.065216 170.326279,227.471420 167.138428,221.758850 
	C166.034058,219.779846 165.578400,217.438858 164.318665,215.314957 
	C164.318665,217.607971 164.318665,219.900986 164.318665,223.355789 
	C160.509506,215.617249 160.361221,208.418472 161.257202,201.328888 
	C162.439224,191.975952 165.775558,183.280197 171.588074,175.702347 
	C178.710449,166.416748 188.352554,161.823227 199.847366,161.158493 
	C201.551559,161.059952 203.300613,162.924469 205.132370,163.600372 
	C209.070511,165.053528 213.076080,166.323929 218.033295,168.000290 
	C217.500580,164.755981 217.265106,163.321915 217.009369,161.513550 
	C219.709717,161.750076 222.430359,162.360901 225.519592,163.031189 
	C226.590210,167.010742 226.692856,171.120102 231.285294,173.150101 
	C232.256439,173.579361 232.380463,175.925064 232.840897,177.787201 
	C225.942947,176.441833 219.187485,173.958939 212.234192,173.124313 
	C201.658508,171.854858 191.916122,174.822601 183.342560,181.578613 
	C182.504791,178.823181 182.002014,176.403549 181.358246,173.305420 
	C179.523254,174.570724 178.588943,174.986008 177.964172,175.679977 
	C167.998795,186.749252 166.178360,199.855545 168.894943,213.874954 
	C169.451263,216.745987 171.459610,219.335663 172.798630,222.055038 
z"/>
<path fill="#BC04D3" opacity="1.000000" stroke="none" 
	d="
M312.365051,165.980408 
	C311.202606,166.321320 310.380035,166.599792 309.227905,166.880737 
	C308.265564,164.251816 307.632843,161.620422 306.996582,158.621994 
	C310.010071,157.427551 313.027069,156.600128 316.433319,155.705688 
	C317.575928,158.397614 318.329315,161.156555 319.126556,164.278229 
	C318.389923,164.772018 317.609467,164.903061 316.437469,165.080017 
	C314.932281,165.389954 313.818604,165.653961 312.365051,165.980408 
z"/>
<path fill="#0B0FE8" opacity="1.000000" stroke="none" 
	d="
M213.284271,249.353485 
	C235.428070,245.634460 245.860291,228.610306 255.909454,211.164429 
	C256.816681,209.589432 257.600311,207.943222 258.661621,206.056778 
	C261.085236,206.405151 263.288574,207.026840 265.805054,207.863724 
	C263.561340,213.065430 261.004486,218.051926 257.960327,223.458237 
	C257.311249,224.261658 257.149536,224.645279 256.987793,225.028885 
	C256.987793,225.028885 257.025024,225.019455 256.729584,225.135483 
	C256.270935,225.826035 256.107727,226.400543 255.944504,226.975067 
	C255.944504,226.975067 256.001709,226.994247 255.626709,226.949326 
	C254.481400,228.257782 253.711090,229.611160 252.940765,230.964523 
	C252.940765,230.964523 252.996628,231.000473 252.650620,230.918549 
	C252.186752,231.210388 252.068893,231.584152 251.951019,231.957916 
	C251.951019,231.957916 252.003098,231.990875 251.631973,231.863831 
	C243.330353,239.404266 234.382812,245.449554 223.421387,248.944489 
	C220.667587,249.292221 218.322617,249.630234 215.977631,249.968262 
	C215.161240,249.826904 214.344849,249.685547 213.284271,249.353485 
z"/>
<path fill="#8508E6" opacity="1.000000" stroke="none" 
	d="
M215.988922,250.369812 
	C218.322617,249.630234 220.667587,249.292221 223.851532,248.997803 
	C226.932739,248.608505 229.424545,248.657288 231.369095,247.649780 
	C236.599625,244.939789 241.596466,241.778763 246.686081,238.796799 
	C247.008316,239.416702 247.330551,240.036621 247.945831,240.862396 
	C246.580231,242.837143 244.921570,244.606003 242.786682,246.798431 
	C240.191360,248.704285 238.072281,250.186584 235.603714,251.780518 
	C229.520752,254.303131 223.787262,256.714142 218.053772,259.125122 
	C217.369263,256.340515 216.684738,253.555939 215.988922,250.369812 
z"/>
<path fill="#FA32E6" opacity="1.000000" stroke="none" 
	d="
M217.770599,259.343445 
	C223.787262,256.714142 229.520752,254.303131 235.614410,252.240326 
	C235.979355,254.373932 235.984116,256.159332 235.988861,257.944763 
	C231.196350,259.386169 226.403854,260.827606 221.299164,262.456604 
	C217.447083,262.644196 213.907196,262.644196 210.367310,262.644196 
	C210.311554,262.443573 210.255783,262.242920 210.200012,262.042297 
	C212.629150,261.215454 215.058289,260.388611 217.770599,259.343445 
z"/>
<path fill="#5209E7" opacity="1.000000" stroke="none" 
	d="
M203.260864,249.285736 
	C204.398590,249.052826 205.768219,249.067276 207.546509,249.133804 
	C206.467712,249.301636 204.980240,249.417358 203.260864,249.285736 
z"/>
<path fill="#E634E7" opacity="1.000000" stroke="none" 
	d="
M236.331711,257.868958 
	C235.984116,256.159332 235.979355,254.373932 235.963898,252.128708 
	C238.072281,250.186584 240.191360,248.704285 242.612549,247.085510 
	C243.856155,248.432510 244.797668,249.915970 245.894806,251.729523 
	C246.050461,252.059631 246.004837,252.524948 245.998260,252.758575 
	C242.885986,254.592529 239.780273,256.192871 236.331711,257.868958 
z"/>
<path fill="#8579E4" opacity="1.000000" stroke="none" 
	d="
M246.900177,238.530457 
	C241.596466,241.778763 236.599625,244.939789 231.369095,247.649780 
	C229.424545,248.657288 226.932739,248.608505 224.260345,248.988098 
	C234.382812,245.449554 243.330353,239.404266 251.607727,231.842529 
	C250.341171,234.053528 248.727722,236.158813 246.900177,238.530457 
z"/>
<path fill="#8579E4" opacity="1.000000" stroke="none" 
	d="
M253.260345,230.868134 
	C253.711090,229.611160 254.481400,228.257782 255.604797,226.928482 
	C255.165237,228.225616 254.372574,229.498672 253.260345,230.868134 
z"/>
<path fill="#8579E4" opacity="1.000000" stroke="none" 
	d="
M256.239380,226.853317 
	C256.107727,226.400543 256.270935,225.826035 256.729004,225.116287 
	C256.860657,225.564575 256.697449,226.148071 256.239380,226.853317 
z"/>
<path fill="#8579E4" opacity="1.000000" stroke="none" 
	d="
M252.216949,231.912399 
	C252.068893,231.584152 252.186752,231.210388 252.631012,230.891800 
	C252.799240,231.253616 252.641052,231.560257 252.216949,231.912399 
z"/>
<path fill="#8579E4" opacity="1.000000" stroke="none" 
	d="
M257.306641,224.906006 
	C257.149536,224.645279 257.311249,224.261658 257.728149,223.683243 
	C257.864044,223.920013 257.744781,224.351578 257.306641,224.906006 
z"/>
<path fill="#0C0D6A" opacity="1.000000" stroke="none" 
	d="
M172.801880,221.651337 
	C171.459610,219.335663 169.451263,216.745987 168.894943,213.874954 
	C166.178360,199.855545 167.998795,186.749252 177.964172,175.679977 
	C178.588943,174.986008 179.523254,174.570724 181.358246,173.305420 
	C182.002014,176.403549 182.504791,178.823181 183.005264,181.663559 
	C176.336670,189.846359 171.754532,198.609131 171.350510,208.977600 
	C171.192108,213.042557 172.283127,217.156189 172.801880,221.651337 
z"/>
<path fill="#450AA4" opacity="1.000000" stroke="none" 
	d="
M203.033173,180.998657 
	C197.042130,183.731171 191.051071,186.463684 184.566833,189.134613 
	C184.073669,189.073013 183.763504,188.770416 183.763504,188.770416 
	C187.617142,185.925873 191.470779,183.081329 195.953049,180.209534 
	C198.732193,180.454422 200.882675,180.726547 203.033173,180.998657 
z"/>
<path fill="#BC04D3" opacity="1.000000" stroke="none" 
	d="
M215.085281,177.425201 
	C220.399399,179.342422 225.713501,181.259644 231.027618,183.176865 
	C230.848145,183.676315 230.668671,184.175766 230.489197,184.675201 
	C225.629730,183.724945 220.770279,182.774704 215.507904,181.389374 
	C215.098404,179.777939 215.091843,178.601562 215.085281,177.425201 
z"/>
<path fill="#EC01DB" opacity="1.000000" stroke="none" 
	d="
M250.876221,206.756348 
	C252.171066,203.932602 253.465912,201.108841 254.760757,198.285080 
	C255.317184,198.250458 255.873611,198.215851 256.430054,198.181229 
	C256.604889,199.655380 257.284943,201.307861 256.841583,202.563766 
	C256.090668,204.690735 254.630203,206.567200 252.934021,208.579483 
	C251.892090,207.992126 251.384155,207.374237 250.876221,206.756348 
z"/>
<path fill="#7508B7" opacity="1.000000" stroke="none" 
	d="
M247.964249,217.025238 
	C245.087906,221.269577 242.211563,225.513931 239.335205,229.758286 
	C238.880341,229.462906 238.425461,229.167526 237.970581,228.872131 
	C238.208603,223.958450 242.810364,221.466248 245.439606,217.306747 
	C246.564209,216.988174 247.264236,217.006699 247.964249,217.025238 
z"/>
<path fill="#BC04D3" opacity="1.000000" stroke="none" 
	d="
M248.248611,216.829376 
	C247.264236,217.006699 246.564209,216.988174 245.513489,216.959686 
	C246.866821,213.671188 248.570847,210.392624 250.575562,206.935211 
	C251.384155,207.374237 251.892090,207.992126 252.656677,208.774658 
	C251.453201,211.504059 249.993088,214.068787 248.248611,216.829376 
z"/>
<path fill="#7508B7" opacity="1.000000" stroke="none" 
	d="
M203.448059,180.985168 
	C200.882675,180.726547 198.732193,180.454422 196.267029,180.031906 
	C197.949799,179.137970 199.947235,178.394440 202.613770,177.958008 
	C206.201447,179.371201 209.120010,180.477325 212.038589,181.583450 
	C209.313370,181.379517 206.588165,181.175583 203.448059,180.985168 
z"/>
<path fill="#8507CD" opacity="1.000000" stroke="none" 
	d="
M212.415833,181.664749 
	C209.120010,180.477325 206.201447,179.371201 202.991882,177.955124 
	C206.536743,177.462921 210.372604,177.280685 214.646881,177.261826 
	C215.091843,178.601562 215.098404,179.777939 215.099243,181.308258 
	C214.326691,181.690170 213.559875,181.718109 212.415833,181.664749 
z"/>
<path fill="#450AA4" opacity="1.000000" stroke="none" 
	d="
M183.312622,190.354279 
	C183.030548,190.724777 182.748489,191.095291 182.466431,191.465790 
	C182.471634,191.035797 182.476868,190.605820 182.791016,190.143600 
	C183.099915,190.111374 183.312607,190.354263 183.312622,190.354279 
z"/>
<path fill="#450AA4" opacity="1.000000" stroke="none" 
	d="
M184.227356,189.225739 
	C184.251373,189.695435 184.044998,189.950333 183.537262,190.248688 
	C183.312607,190.354263 183.099915,190.111374 182.990189,189.992401 
	C182.931564,189.534286 183.086258,189.251907 183.554016,188.898346 
	C183.763504,188.770416 184.073669,189.073013 184.227356,189.225739 
z"/>
</svg>